<svg width="29" height="32" viewBox="0 0 29 32" fill="none" xmlns="http://www.w3.org/2000/svg">
<path d="M24.9319 0H3.30812C1.48462 0 0 1.48463 0 3.30814V24.9319C0 26.7554 1.48462 28.2401 3.30812 28.2401H21.6077L20.7524 25.287L22.818 27.1911L24.7705 28.9824L28.2562 32V3.30814C28.24 1.48463 26.7554 0 24.9319 0Z" fill="#7289DA"/>
<path d="M18.703 20.8976C18.703 20.8976 18.122 20.2037 17.6379 19.6067C19.7519 19.0096 20.5587 17.7025 20.5587 17.7025C19.8971 18.1382 19.2678 18.4448 18.703 18.6546C17.8961 18.9935 17.1215 19.2032 16.3631 19.3485C14.8139 19.6389 13.3938 19.5583 12.1835 19.3323C11.2637 19.1548 10.473 18.9127 9.81138 18.6384C9.44023 18.4932 9.0368 18.3157 8.63337 18.0897C8.58496 18.0574 8.53655 18.0413 8.48814 18.0091C8.45586 17.9929 8.43972 17.9768 8.42359 17.9768C8.13312 17.8154 7.97175 17.7025 7.97175 17.7025C7.97175 17.7025 8.74633 18.9773 10.7957 19.5905C10.3116 20.2037 9.71456 20.9137 9.71456 20.9137C6.14825 20.8008 4.79272 18.477 4.79272 18.477C4.79272 13.3293 7.11648 9.14976 7.11648 9.14976C9.44023 7.42309 11.6349 7.4715 11.6349 7.4715L11.7963 7.66515C8.89156 8.48814 7.56832 9.76298 7.56832 9.76298C7.56832 9.76298 7.92334 9.56933 8.52041 9.31113C10.2471 8.55268 11.6187 8.35904 12.1835 8.29449C12.2804 8.27833 12.3611 8.26219 12.4579 8.26219C13.4422 8.13309 14.5557 8.10081 15.7176 8.22987C17.2506 8.40737 18.8966 8.85922 20.5749 9.7629C20.5749 9.7629 19.3 8.55261 16.5567 7.72961L16.7826 7.47142C16.7826 7.47142 18.9934 7.42296 21.301 9.14969C21.301 9.14969 23.6248 13.3292 23.6248 18.477C23.6248 18.4608 22.2693 20.7846 18.703 20.8975V20.8976Z" fill="white"/>
<path d="M17.0893 13.4261C16.1695 13.4261 15.4433 14.2169 15.4433 15.2012C15.4433 16.1856 16.1856 16.9763 17.0893 16.9763C18.0091 16.9763 18.7353 16.1856 18.7353 15.2012C18.7353 14.2169 17.993 13.4261 17.0893 13.4261ZM11.1992 13.4261C10.2794 13.4261 9.55322 14.2169 9.55322 15.2012C9.55322 16.1856 10.2955 16.9763 11.1992 16.9763C12.119 16.9763 12.8452 16.1856 12.8452 15.2012C12.8613 14.2169 12.119 13.4261 11.1992 13.4261Z" fill="#7289DA"/>
</svg>
