<svg width="323" height="50" viewBox="0 0 323 50" fill="none" xmlns="http://www.w3.org/2000/svg">
<path d="M41.309 0.00111838C40.5691 0.0022344 39.8465 0.224771 39.2342 0.640112C38.6219 1.05545 38.148 1.64462 37.8734 2.33165L23.9777 37.0488H9.73196L22.5225 5.07797C22.8865 4.16532 22.8732 3.14539 22.4854 2.24259C22.0976 1.33979 21.3671 0.628024 20.4546 0.263717C19.5419 -0.100309 18.5221 -0.0870128 17.6193 0.300778C16.7165 0.688568 16.0047 1.41912 15.6403 2.33165L0.814666 39.3794C0.58873 39.9415 0.504085 40.5505 0.568124 41.1529C0.632163 41.7554 0.842944 42.333 1.18201 42.8351C1.52107 43.3373 1.97805 43.7486 2.51297 44.0331C3.04789 44.3176 3.64442 44.4666 4.25029 44.4671H26.4833C27.2251 44.4682 27.9501 44.2467 28.5645 43.8312C29.179 43.4157 29.6546 42.8254 29.9299 42.1366L41.309 13.6779L52.6881 42.1366C52.8695 42.5888 53.1382 43.0008 53.479 43.349C53.8198 43.6971 54.2259 43.9747 54.6741 44.1658C55.1223 44.3568 55.6037 44.4577 56.0909 44.4625C56.5781 44.4672 57.0614 44.3758 57.5133 44.1936C58.4238 43.8272 59.1519 43.1145 59.5375 42.2119C59.9232 41.3093 59.9349 40.2906 59.5703 39.3794L44.7555 2.33165C44.4802 1.64289 44.0046 1.05251 43.3902 0.637031C42.7757 0.221551 42.0507 4.77647e-05 41.309 0.00111838Z" fill="#70A7FF"/>
<path d="M72.2454 40.0041V4.46313H79.7596V33.8087H94.9964V40.0041H72.2454Z" fill="white"/>
<path d="M111.881 40.5246C109.186 40.5246 106.854 39.9519 104.888 38.8065C102.932 37.6496 101.423 36.0415 100.358 33.9822C99.2939 31.9113 98.7617 29.5107 98.7617 26.7803C98.7617 24.0268 99.2939 21.6204 100.358 19.5611C101.423 17.4902 102.932 15.882 104.888 14.7366C106.854 13.5797 109.186 13.0013 111.881 13.0013C114.577 13.0013 116.902 13.5797 118.858 14.7366C120.824 15.882 122.34 17.4902 123.404 19.5611C124.469 21.6204 125.001 24.0268 125.001 26.7803C125.001 29.5107 124.469 31.9113 123.404 33.9822C122.34 36.0415 120.824 37.6496 118.858 38.8065C116.902 39.9519 114.577 40.5246 111.881 40.5246ZM111.916 34.7978C113.142 34.7978 114.166 34.4507 114.988 33.7566C115.809 33.0508 116.428 32.0906 116.845 30.8758C117.273 29.661 117.487 28.2785 117.487 26.7282C117.487 25.178 117.273 23.7955 116.845 22.5807C116.428 21.3659 115.809 20.4057 114.988 19.6999C114.166 18.9942 113.142 18.6412 111.916 18.6412C110.678 18.6412 109.637 18.9942 108.792 19.6999C107.959 20.4057 107.329 21.3659 106.901 22.5807C106.484 23.7955 106.276 25.178 106.276 26.7282C106.276 28.2785 106.484 29.661 106.901 30.8758C107.329 32.0906 107.959 33.0508 108.792 33.7566C109.637 34.4507 110.678 34.7978 111.916 34.7978Z" fill="white"/>
<path d="M137.218 4.46313V40.0041H129.826V4.46313H137.218Z" fill="white"/>
<path d="M149.383 40.0041H141.331L153.6 4.46313H163.284L175.535 40.0041H167.483L158.581 12.5847H158.303L149.383 40.0041ZM148.88 26.034H167.9V31.8997H148.88V26.034Z" fill="white"/>
<path d="M187.058 24.5937V40.0041H179.666V13.3484H186.711V18.0512H187.024C187.614 16.501 188.603 15.2746 189.991 14.3722C191.379 13.4583 193.063 13.0013 195.041 13.0013C196.892 13.0013 198.506 13.4062 199.883 14.2161C201.259 15.0259 202.33 16.1829 203.093 17.6869C203.857 19.1793 204.239 20.9609 204.239 23.0318V40.0041H196.846V24.3508C196.857 22.7195 196.441 21.4468 195.596 20.5329C194.752 19.6074 193.589 19.1446 192.108 19.1446C191.113 19.1446 190.234 19.3586 189.47 19.7867C188.718 20.2147 188.128 20.8395 187.7 21.6609C187.284 22.4707 187.07 23.4484 187.058 24.5937H187.058Z" fill="white"/>
<path d="M217.653 40.5073C215.952 40.5073 214.437 40.2123 213.106 39.6223C211.776 39.0206 210.723 38.1356 209.948 36.9672C209.184 35.7871 208.803 34.3177 208.803 32.5592C208.803 31.0783 209.074 29.8346 209.618 28.8281C210.162 27.8216 210.902 27.0117 211.84 26.3985C212.777 25.7853 213.841 25.3226 215.033 25.0102C216.236 24.6978 217.497 24.478 218.816 24.3508C220.366 24.1889 221.616 24.0384 222.564 23.8993C223.513 23.7488 224.201 23.529 224.629 23.2399C225.057 22.9503 225.271 22.5223 225.271 21.9557V21.8516C225.271 20.7526 224.924 19.9023 224.23 19.3007C223.548 18.6991 222.576 18.3983 221.315 18.3983C219.984 18.3983 218.926 18.6933 218.139 19.2833C217.352 19.8618 216.832 20.5906 216.577 21.4698L209.74 20.9144C210.087 19.2947 210.769 17.8948 211.787 16.7148C212.806 15.5231 214.119 14.6092 215.727 13.9728C217.347 13.325 219.221 13.001 221.35 13.001C222.83 13.001 224.248 13.1746 225.601 13.5217C226.966 13.8688 228.175 14.4067 229.228 15.1355C230.293 15.8644 231.131 16.8015 231.744 17.9468C232.358 19.0806 232.664 20.4401 232.664 22.0251V40.0037H225.653V36.3074H225.445C225.017 37.1404 224.444 37.875 223.727 38.5113C223.01 39.136 222.148 39.6277 221.141 39.9864C220.135 40.3334 218.972 40.507 217.653 40.507L217.653 40.5073ZM219.77 35.4052C220.858 35.4052 221.818 35.1912 222.651 34.7631C223.484 34.3235 224.138 33.7335 224.612 32.9931C225.086 32.2526 225.324 31.4138 225.324 30.4768V27.648C225.092 27.7985 224.774 27.9374 224.369 28.0647C223.976 28.1805 223.53 28.2904 223.033 28.3944C222.535 28.487 222.038 28.5739 221.54 28.655C221.043 28.7244 220.592 28.788 220.187 28.8459C219.319 28.9732 218.561 29.1757 217.913 29.4535C217.266 29.7312 216.762 30.1072 216.404 30.5814C216.045 31.0442 215.866 31.6227 215.866 32.3168C215.866 33.3234 216.23 34.0927 216.959 34.6249C217.7 35.1455 218.637 35.4059 219.771 35.4059L219.77 35.4052Z" fill="white"/>
<path d="M245.801 4.46313V40.0041H238.409V4.46313H245.801Z" fill="white"/>
<path d="M256.265 49.9998C255.328 49.9998 254.449 49.9246 253.627 49.7741C252.818 49.635 252.147 49.4557 251.614 49.2363L253.28 43.7178C254.148 43.9841 254.929 44.1286 255.623 44.1515C256.329 44.176 256.936 44.0141 257.445 43.6658C257.966 43.3187 258.388 42.7286 258.712 41.8956L259.146 40.7678L249.584 13.3484H257.359L262.877 32.9237H263.155L268.726 13.3484H276.552L266.192 42.8849C265.694 44.3195 265.018 45.5689 264.161 46.6333C263.317 47.7093 262.247 48.5364 260.951 49.1149C259.655 49.7049 258.093 50 256.265 50L256.265 49.9998Z" fill="white"/>
<path d="M302.514 20.9494L295.746 21.3654C295.63 20.7869 295.381 20.2664 295 19.8036C294.618 19.3293 294.115 18.9533 293.49 18.6757C292.877 18.3861 292.142 18.2413 291.286 18.2413C290.141 18.2413 289.175 18.4843 288.388 18.9702C287.601 19.4445 287.208 20.0807 287.208 20.8791C287.208 21.5154 287.462 22.0533 287.971 22.493C288.48 22.9326 289.354 23.2854 290.592 23.5515L295.416 24.5234C298.008 25.0556 299.94 25.9117 301.212 27.0917C302.485 28.2718 303.121 29.8221 303.121 31.7426C303.121 33.4895 302.606 35.0225 301.577 36.3414C300.559 37.6603 299.159 38.69 297.377 39.4305C295.607 40.1593 293.565 40.5236 291.251 40.5236C287.723 40.5236 284.911 39.7891 282.817 38.3198C280.735 36.8389 279.514 34.8259 279.156 32.2807L286.427 31.8983C286.647 32.9743 287.179 33.7957 288.023 34.3625C288.868 34.9179 289.95 35.1955 291.269 35.1955C292.564 35.1955 293.606 34.9468 294.392 34.4492C295.191 33.9402 295.595 33.2866 295.607 32.4883C295.595 31.8173 295.311 31.2677 294.757 30.8396C294.201 30.4 293.345 30.0646 292.188 29.8332L287.572 28.9134C284.969 28.3927 283.031 27.4904 281.759 26.2062C280.498 24.922 279.867 23.2849 279.867 21.295C279.867 19.5828 280.33 18.1077 281.255 16.8698C282.192 15.6319 283.506 14.6774 285.195 14.0063C286.895 13.3353 288.885 12.9999 291.164 12.9999C294.531 12.9999 297.18 13.7114 299.113 15.1344C301.056 16.5574 302.19 18.4952 302.514 20.9479V20.9494Z" fill="white"/>
<path d="M321.967 13.3484V18.9016H305.915V13.3484H321.967ZM309.559 6.96216H316.952V31.8129C316.952 32.4955 317.056 33.0277 317.264 33.4095C317.472 33.7798 317.761 34.0401 318.132 34.1904C318.513 34.3409 318.953 34.4162 319.45 34.4162C319.798 34.4162 320.145 34.3872 320.492 34.3293C320.839 34.2599 321.105 34.2077 321.29 34.1726L322.453 39.6739C322.082 39.7897 321.562 39.9228 320.891 40.0733C320.22 40.2352 319.404 40.3335 318.444 40.3682C316.662 40.4375 315.1 40.2004 313.758 39.6567C312.428 39.1129 311.392 38.2684 310.652 37.123C309.912 35.9777 309.547 34.5315 309.559 32.7846L309.559 6.96216Z" fill="white"/>
</svg>
