<svg width="106" height="121" viewBox="0 0 106 121" fill="none" xmlns="http://www.w3.org/2000/svg">
<path d="M11.3067 0.375C5.06217 0.375 0 5.49174 0 11.8036V96.0893C0 102.401 5.06216 107.518 11.3067 107.518H92.1897L106 120.375V97.5179L105.913 97.5109C105.971 97.0452 106 96.5707 106 96.0893V11.8036C106 5.49175 100.938 0.375 94.6933 0.375H11.3067Z" fill="#7289DA"/>
<path d="M70.9435 78.9465C70.9435 78.9465 68.7481 76.3139 66.9184 73.9873C74.9076 71.7221 77.9568 66.7016 77.9568 66.7016C75.4566 68.3548 73.0779 69.5181 70.9435 70.314C67.8943 71.5997 64.9669 72.4567 62.1006 72.9466C56.2458 74.0487 50.879 73.7425 46.3051 72.8854C42.8288 72.2119 39.8405 71.2322 37.34 70.2528C35.9373 69.7017 34.4127 69.0283 32.888 68.1712C32.7051 68.0485 32.5221 67.9873 32.3392 67.8649C32.2172 67.8037 32.1562 67.7425 32.0952 67.6813C30.9975 67.0691 30.3876 66.6404 30.3876 66.6404C30.3876 66.6404 33.3149 71.5385 41.0602 73.8649C39.2306 76.1915 36.9741 78.9465 36.9741 78.9465C23.4961 78.5179 18.3733 69.6405 18.3733 69.6405C18.3733 49.9264 27.1553 33.947 27.1553 33.947C35.9373 27.3348 44.2926 27.5185 44.2926 27.5185L44.9024 28.2531C33.9248 31.4368 28.8629 36.2735 28.8629 36.2735C28.8629 36.2735 30.2046 35.5388 32.4611 34.498C38.9867 31.6205 44.1705 30.8245 46.3051 30.6409C46.671 30.5796 46.976 30.5184 47.3418 30.5184C51.0619 30.0286 55.2699 29.9062 59.6611 30.396C65.4546 31.0694 71.6754 32.7837 78.0179 36.2735C78.0179 36.2735 73.2001 31.6817 62.8322 28.498L63.686 27.5185C63.686 27.5185 72.0413 27.3348 80.8232 33.947C80.8232 33.947 89.6053 49.9264 89.6053 69.6405C89.6053 69.6405 84.4214 78.5179 70.9435 78.9465ZM42.5848 50.355C39.1086 50.355 36.3643 53.4161 36.3643 57.1508C36.3643 60.8856 39.1696 63.9466 42.5848 63.9466C46.0612 63.9466 48.8054 60.8856 48.8054 57.1508C48.8664 53.4161 46.0612 50.355 42.5848 50.355ZM64.8448 50.355C61.3687 50.355 58.6242 53.4161 58.6242 57.1508C58.6242 60.8856 61.4297 63.9466 64.8448 63.9466C68.3212 63.9466 71.0654 60.8856 71.0654 57.1508C71.0654 53.4161 68.3212 50.355 64.8448 50.355Z" fill="white"/>
</svg>
