<svg width="428" height="50" viewBox="0 0 428 50" fill="none" xmlns="http://www.w3.org/2000/svg">
<g clip-path="url(#clip0_403_584)">
<path d="M70.494 39.0244V-0.00012207H75.2196V34.8323H93.3599V39.0244H70.494Z" fill="white"/>
<path d="M111.957 39.634C109.315 39.634 106.997 39.0052 105.002 37.7476C103.021 36.49 101.471 34.7306 100.353 32.4694C99.2477 30.2082 98.6951 27.566 98.6951 24.5426C98.6951 21.4938 99.2477 18.8325 100.353 16.5586C101.471 14.2847 103.021 12.519 105.002 11.2614C106.997 10.0037 109.315 9.37488 111.957 9.37488C114.6 9.37488 116.912 10.0037 118.893 11.2614C120.888 12.519 122.437 14.2847 123.543 16.5586C124.661 18.8325 125.22 21.4938 125.22 24.5426C125.22 27.566 124.661 30.2082 123.543 32.4694C122.437 34.7306 120.888 36.49 118.893 37.7476C116.912 39.0052 114.6 39.634 111.957 39.634ZM111.957 35.5945C113.964 35.5945 115.616 35.08 116.912 34.051C118.207 33.022 119.166 31.6691 119.789 29.9923C120.411 28.3155 120.723 26.4989 120.723 24.5426C120.723 22.5864 120.411 20.7634 119.789 19.0738C119.166 17.3843 118.207 16.0187 116.912 14.977C115.616 13.9354 113.964 13.4145 111.957 13.4145C109.95 13.4145 108.299 13.9354 107.003 14.977C105.707 16.0187 104.748 17.3843 104.126 19.0738C103.503 20.7634 103.192 22.5864 103.192 24.5426C103.192 26.4989 103.503 28.3155 104.126 29.9923C104.748 31.6691 105.707 33.022 107.003 34.051C108.299 35.08 109.95 35.5945 111.957 35.5945Z" fill="white"/>
<path d="M136.576 -0.00012207V39.0244H132.079V-0.00012207H136.576Z" fill="white"/>
<path d="M147.018 39.0244H142.064L156.393 -0.00012207H161.271L175.601 39.0244H170.646L158.985 6.17366H158.68L147.018 39.0244ZM148.848 23.7804H168.817V27.9725H148.848V23.7804Z" fill="white"/>
<path d="M0.265686 39.0244V-6.10352e-05H4.99129V34.8323H28.4974L23.1315 39.0244H0.265686Z" fill="#70A7FF"/>
<path d="M28.0858 39.0243H23.1315L37.4608 -0.00012207H42.3388L56.6681 39.0243H51.7139L40.0523 6.17366H39.7474L28.0858 39.0243Z" fill="#70A7FF"/>
<path d="M185.585 21.4176V39.0244H181.088V9.75599H185.433V14.3292H185.814C186.5 12.8429 187.542 11.6488 188.939 10.7469C190.336 9.83221 192.14 9.37488 194.351 9.37488C196.332 9.37488 198.066 9.78141 199.553 10.5945C201.039 11.3948 202.195 12.6143 203.021 14.253C203.846 15.879 204.259 17.9369 204.259 20.4267V39.0244H199.762V20.7317C199.762 18.4323 199.165 16.6412 197.971 15.3582C196.777 14.0624 195.138 13.4145 193.055 13.4145C191.619 13.4145 190.336 13.7258 189.206 14.3482C188.088 14.9707 187.205 15.879 186.557 17.0731C185.909 18.2672 185.585 19.7154 185.585 21.4176H185.585Z" fill="white"/>
<path d="M221.104 39.7103C219.249 39.7103 217.566 39.361 216.054 38.6623C214.542 37.9509 213.342 36.9284 212.453 35.5945C211.563 34.248 211.119 32.6219 211.119 30.7164C211.119 29.0396 211.449 27.6804 212.11 26.6387C212.77 25.5843 213.653 24.7586 214.758 24.1616C215.863 23.5645 217.083 23.1198 218.417 22.8276C219.763 22.5227 221.116 22.2815 222.475 22.1039C224.254 21.875 225.696 21.7036 226.801 21.5896C227.919 21.4623 228.732 21.2526 229.24 20.9605C229.761 20.6685 230.021 20.1604 230.021 19.4362V19.2837C230.021 17.4037 229.507 15.9428 228.478 14.9011C227.462 13.8595 225.918 13.3387 223.847 13.3387C221.701 13.3387 220.017 13.8087 218.798 14.7487C217.578 15.6887 216.721 16.6923 216.225 17.7594L211.957 16.235C212.719 14.4565 213.736 13.0718 215.006 12.081C216.289 11.0775 217.686 10.3788 219.198 9.98494C220.722 9.57842 222.221 9.37515 223.695 9.37515C224.635 9.37515 225.715 9.48963 226.934 9.71855C228.167 9.93464 229.354 10.3856 230.498 11.0714C231.654 11.7574 232.613 12.7927 233.375 14.1773C234.137 15.562 234.518 17.4167 234.518 19.7414V39.0249H230.021V35.0615H229.793C229.488 35.6967 228.98 36.3763 228.268 37.1004C227.557 37.8245 226.61 38.4405 225.429 38.9487C224.248 39.4569 222.806 39.7109 221.104 39.7109V39.7103ZM221.79 35.6707C223.568 35.6707 225.067 35.3214 226.286 34.6227C227.519 33.924 228.446 33.0221 229.069 31.9169C229.704 30.8117 230.021 29.6493 230.021 28.4299V24.314C229.831 24.5429 229.412 24.7526 228.764 24.943C228.128 25.1206 227.392 25.2795 226.553 25.4196C225.728 25.5469 224.921 25.6614 224.133 25.763C223.358 25.8518 222.73 25.928 222.247 25.9916C221.078 26.1441 219.986 26.3918 218.969 26.7347C217.966 27.0647 217.153 27.5665 216.53 28.2399C215.921 28.9005 215.616 29.8025 215.616 30.9458C215.616 32.5083 216.194 33.6897 217.35 34.49C218.518 35.2776 219.998 35.6714 221.79 35.6714V35.6707Z" fill="white"/>
<path d="M247.247 -0.00012207V39.0244H242.75V-0.00012207H247.247Z" fill="white"/>
<path d="M258.375 49.9999C257.613 49.9999 256.933 49.9362 256.336 49.8089C255.739 49.6945 255.326 49.58 255.097 49.4656L256.241 45.5021C257.333 45.7819 258.298 45.8835 259.137 45.8071C259.975 45.7306 260.718 45.3558 261.366 44.6829C262.027 44.0222 262.63 42.9488 263.177 41.4626L264.015 39.1759L253.192 9.75522H258.07L266.149 33.0784H266.454L274.533 9.75522H279.411L266.988 43.2918C266.429 44.8035 265.736 46.0548 264.911 47.0456C264.085 48.0491 263.126 48.7923 262.033 49.275C260.953 49.7575 259.734 49.9987 258.375 49.9987V49.9999Z" fill="white"/>
<path d="M306.088 16.3109L302.049 17.4542C301.794 16.7809 301.42 16.1267 300.924 15.4915C300.442 14.8436 299.781 14.3101 298.943 13.8909C298.104 13.4716 297.031 13.2619 295.722 13.2619C293.931 13.2619 292.439 13.6747 291.244 14.5004C290.063 15.3134 289.472 16.3487 289.472 17.6064C289.472 18.7243 289.879 19.6072 290.692 20.255C291.505 20.9029 292.775 21.4428 294.503 21.8747L298.847 22.9417C301.464 23.5769 303.414 24.5487 304.697 25.8571C305.98 27.1529 306.622 28.8233 306.622 30.8686C306.622 32.5454 306.139 34.0444 305.174 35.3656C304.221 36.6867 302.887 37.7283 301.172 38.4905C299.457 39.2527 297.463 39.6338 295.189 39.6338C292.204 39.6338 289.733 38.9859 287.776 37.6902C285.82 36.3944 284.582 34.5017 284.061 32.0118L288.329 30.9448C288.736 32.52 289.504 33.7014 290.635 34.489C291.778 35.2766 293.271 35.6704 295.113 35.6704C297.209 35.6704 298.873 35.2258 300.105 34.3366C301.35 33.4346 301.972 32.3548 301.972 31.0972C301.972 30.081 301.617 29.2299 300.905 28.5439C300.194 27.8452 299.101 27.3244 297.628 26.9814L292.75 25.8381C290.069 25.203 288.1 24.2184 286.843 22.8846C285.598 21.538 284.975 19.8549 284.975 17.8351C284.975 16.1836 285.439 14.7228 286.366 13.4524C287.306 12.1821 288.583 11.1849 290.196 10.4608C291.822 9.73672 293.664 9.37463 295.722 9.37463C298.619 9.37463 300.893 10.0098 302.544 11.2801C304.208 12.5505 305.389 14.2273 306.088 16.3106V16.3109Z" fill="white"/>
<path d="M326.134 9.75593V13.5669H310.966V9.75593H326.134ZM315.387 2.74374H319.884V30.6401C319.884 31.9104 320.068 32.8632 320.436 33.4984C320.817 34.1208 321.3 34.54 321.885 34.756C322.482 34.9592 323.11 35.0608 323.771 35.0608C324.266 35.0608 324.673 35.0352 324.99 34.9839C325.308 34.9202 325.562 34.8694 325.753 34.8314L326.667 38.8711C326.362 38.9855 325.937 39.1 325.391 39.2145C324.844 39.3418 324.152 39.4054 323.314 39.4054C322.043 39.4054 320.798 39.1323 319.579 38.5861C318.372 38.0398 317.369 37.2077 316.568 36.0899C315.781 34.972 315.387 33.562 315.387 31.8598V2.74374Z" fill="white"/>
<path d="M335.128 39.0244H330.173L344.503 -0.00012207H349.381L363.71 39.0244H358.756L347.094 6.17366H346.789L335.128 39.0244ZM336.957 23.7804H356.926V27.9725H336.957V23.7804Z" fill="white"/>
<path d="M369.198 49.9999V9.75599H373.542V14.4054H374.076C374.406 13.8973 374.863 13.2494 375.448 12.4618C376.045 11.6615 376.896 10.9501 378.001 10.3277C379.119 9.69246 380.631 9.37488 382.536 9.37488C385.001 9.37488 387.173 9.99103 389.053 11.2233C390.933 12.4555 392.4 14.2021 393.455 16.4633C394.509 18.7245 395.036 21.3922 395.036 24.4664C395.036 27.566 394.509 30.2527 393.455 32.5266C392.4 34.7878 390.939 36.5408 389.072 37.7858C387.205 39.018 385.051 39.634 382.612 39.634C380.732 39.634 379.227 39.3228 378.096 38.7004C376.966 38.0652 376.096 37.3475 375.486 36.5472C374.876 35.7342 374.406 35.0609 374.076 34.5274H373.695V49.9999H369.198ZM373.619 24.3902C373.619 26.6005 373.942 28.5505 374.59 30.24C375.238 31.9169 376.185 33.2317 377.429 34.1844C378.674 35.1245 380.199 35.5945 382.003 35.5945C383.883 35.5945 385.452 35.099 386.709 34.1081C387.98 33.1046 388.932 31.7581 389.567 30.0686C390.215 28.3663 390.539 26.4735 390.539 24.3902C390.539 22.3322 390.222 20.4776 389.587 18.8262C388.964 17.162 388.018 15.8472 386.747 14.8818C385.49 13.9036 383.908 13.4145 382.003 13.4145C380.173 13.4145 378.636 13.8782 377.391 14.8056C376.146 15.7202 375.206 17.0032 374.571 18.6546C373.936 20.2933 373.619 22.2052 373.619 24.3902V24.3902Z" fill="white"/>
<path d="M401.896 49.9999V9.75599H406.24V14.4054H406.774C407.104 13.8973 407.562 13.2494 408.146 12.4618C408.743 11.6615 409.594 10.9501 410.699 10.3277C411.817 9.69246 413.329 9.37488 415.234 9.37488C417.699 9.37488 419.871 9.99103 421.751 11.2233C423.631 12.4555 425.098 14.2021 426.153 16.4633C427.207 18.7245 427.734 21.3922 427.734 24.4664C427.734 27.566 427.207 30.2527 426.153 32.5266C425.098 34.7878 423.638 36.5408 421.77 37.7858C419.903 39.018 417.75 39.634 415.311 39.634C413.43 39.634 411.925 39.3228 410.795 38.7004C409.664 38.0652 408.794 37.3475 408.184 36.5472C407.574 35.7342 407.104 35.0609 406.774 34.5274H406.393V49.9999H401.896ZM406.317 24.3902C406.317 26.6005 406.641 28.5505 407.288 30.24C407.936 31.9169 408.883 33.2317 410.128 34.1844C411.373 35.1245 412.897 35.5945 414.701 35.5945C416.581 35.5945 418.15 35.099 419.407 34.1081C420.678 33.1046 421.63 31.7581 422.266 30.0686C422.913 28.3663 423.237 26.4735 423.237 24.3902C423.237 22.3322 422.92 20.4776 422.285 18.8262C421.662 17.162 420.716 15.8472 419.445 14.8818C418.188 13.9036 416.606 13.4145 414.701 13.4145C412.871 13.4145 411.334 13.8782 410.089 14.8056C408.845 15.7202 407.905 17.0032 407.269 18.6546C406.634 20.2933 406.317 22.2052 406.317 24.3902V24.3902Z" fill="white"/>
</g>
<defs>
<clipPath id="clip0_403_584">
<rect width="427.469" height="50" fill="white" transform="translate(0.265686)"/>
</clipPath>
</defs>
</svg>
