<svg width="60" height="45" viewBox="0 0 60 45" fill="current" xmlns="http://www.w3.org/2000/svg">
<path d="M41.309 0.00111838C40.5691 0.0022344 39.8465 0.224771 39.2342 0.640112C38.6219 1.05545 38.148 1.64462 37.8734 2.33165L23.9777 37.0488H9.73196L22.5225 5.07797C22.8865 4.16532 22.8732 3.14539 22.4854 2.24259C22.0976 1.33979 21.3671 0.628024 20.4546 0.263717C19.5419 -0.100309 18.5221 -0.0870128 17.6193 0.300778C16.7165 0.688568 16.0047 1.41912 15.6403 2.33165L0.814666 39.3794C0.58873 39.9415 0.504085 40.5505 0.568124 41.1529C0.632163 41.7554 0.842944 42.333 1.18201 42.8351C1.52107 43.3373 1.97805 43.7486 2.51297 44.0331C3.04789 44.3176 3.64442 44.4666 4.2503 44.4671H26.4833C27.2251 44.4682 27.9501 44.2467 28.5645 43.8312C29.179 43.4157 29.6546 42.8254 29.9299 42.1366L41.309 13.6779L52.6881 42.1366C52.8695 42.5888 53.1382 43.0008 53.479 43.349C53.8198 43.6971 54.2259 43.9747 54.6741 44.1658C55.1223 44.3568 55.6037 44.4577 56.0909 44.4625C56.5781 44.4672 57.0614 44.3758 57.5133 44.1936C58.4238 43.8272 59.1519 43.1145 59.5375 42.2119C59.9232 41.3093 59.9349 40.2906 59.5703 39.3794L44.7555 2.33165C44.4802 1.64289 44.0046 1.05251 43.3902 0.637031C42.7757 0.221551 42.0507 4.77647e-05 41.309 0.00111838V0.00111838Z" fill="current"/>
</svg>
